<svg width="24" height="20" viewBox="0 0 24 20" fill="none" xmlns="http://www.w3.org/2000/svg">
<path d="M14.5 19.5C14.372 19.5 14.244 19.451 14.146 19.354C13.951 19.159 13.951 18.842 14.146 18.647L22.793 9.99998L14.147 1.35398C13.952 1.15898 13.952 0.841982 14.147 0.646982C14.342 0.451982 14.659 0.451982 14.854 0.646982L23.854 9.64698C24.049 9.84198 24.049 10.159 23.854 10.354L14.854 19.354C14.756 19.451 14.628 19.5 14.5 19.5Z" fill="#2F70FE"/>
<path d="M23.5 10.5H0.5C0.224 10.5 0 10.276 0 10C0 9.724 0.224 9.5 0.5 9.5H23.5C23.776 9.5 24 9.724 24 10C24 10.276 23.776 10.5 23.5 10.5Z" fill="#2F70FE"/>
</svg>
